<svg width="16" height="18" viewBox="0 0 16 18" fill="none" xmlns="http://www.w3.org/2000/svg">
<path fill-rule="evenodd" clip-rule="evenodd" d="M0.5 9C0.5 8.33696 0.763392 7.70107 1.23223 7.23223C1.70107 6.76339 2.33696 6.5 3 6.5H13C13.663 6.5 14.2989 6.76339 14.7678 7.23223C15.2366 7.70107 15.5 8.33696 15.5 9V14.8333C15.5 15.4964 15.2366 16.1323 14.7678 16.6011C14.2989 17.0699 13.663 17.3333 13 17.3333H3C2.33696 17.3333 1.70107 17.0699 1.23223 16.6011C0.763392 16.1323 0.5 15.4964 0.5 14.8333V9ZM8.83333 10.6667C8.83333 10.4457 8.74554 10.2337 8.58926 10.0774C8.43297 9.92113 8.22101 9.83333 8 9.83333C7.77899 9.83333 7.56702 9.92113 7.41074 10.0774C7.25446 10.2337 7.16667 10.4457 7.16667 10.6667V13.1667C7.16667 13.3877 7.25446 13.5996 7.41074 13.7559C7.56702 13.9122 7.77899 14 8 14C8.22101 14 8.43297 13.9122 8.58926 13.7559C8.74554 13.5996 8.83333 13.3877 8.83333 13.1667V10.6667Z" fill="#19191A"/>
<path d="M4.66602 7.33333V4.83333C4.66602 3.94928 5.0172 3.10143 5.64233 2.47631C6.26745 1.85119 7.11529 1.5 7.99935 1.5C8.8834 1.5 9.73125 1.85119 10.3564 2.47631C10.9815 3.10143 11.3327 3.94928 11.3327 4.83333V7.33333" stroke="#19191A" stroke-width="2" stroke-linecap="round" stroke-linejoin="round"/>
</svg>
