<svg width="24" height="24" viewBox="0 0 24 24" fill="none" xmlns="http://www.w3.org/2000/svg">
<path d="M16.4944 3.58984C14.5597 3.58984 12.9064 4.96892 11.9981 5.91969C11.0898 4.96892 9.44028 3.58984 7.50644 3.58984C4.17321 3.58984 1.84613 5.91323 1.84613 9.23907C1.84613 12.9037 4.73628 15.2723 7.53228 17.5634C8.85228 18.6462 10.2184 19.7649 11.2661 21.0055C11.4424 21.2132 11.7009 21.3332 11.9723 21.3332H12.0258C12.2981 21.3332 12.5557 21.2123 12.7311 21.0055C13.7806 19.7649 15.1458 18.6452 16.4667 17.5634C19.2618 15.2732 22.1538 12.9046 22.1538 9.23907C22.1538 5.91323 19.8267 3.58984 16.4944 3.58984Z" fill="#E92929"/>
</svg>
